# xmcd CD database file
#
# Track frame offsets:
#	150
#	12196
#	28033
#	45961
#	58791
#	72095
#	85428
#	101146
#	112864
#	126058
#
# Disc length: 1952 seconds
#
# Revision: 0
# Processed by: cddbd v1.5.2PL0 Copyright (c) Steve Scherf et al.
# Submitted via: cdripper 1,0,15,908
#
DISCID=7a079e0a
DTITLE=David St. Romain - DSR
DYEAR=2001
DGENRE=Country
TTITLE0=Hard, Hard World
TTITLE1=Wild Honey
TTITLE2=Just as She Was Leaving
TTITLE3=A Mans Gotta Do What a Mans Gotta Do
TTITLE4=Dance With Me Tonight
TTITLE5=I Hate to Love You
TTITLE6=Only a Good Woman
TTITLE7=Aint Love Strange
TTITLE8=Please
TTITLE9=I Love You Period
EXTD=YEAR: 2001
EXTT0=
EXTT1=
EXTT2=
EXTT3=
EXTT4=
EXTT5=
EXTT6=
EXTT7=
EXTT8=
EXTT9=
PLAYORDER=
